<svg width="46" height="46" viewBox="0 0 46 46" fill="none" xmlns="http://www.w3.org/2000/svg">
<path fill-rule="evenodd" clip-rule="evenodd" d="M3.83665 19.1667H42.1634C42.1402 14.9979 41.9552 12.7402 40.4825 11.2675C38.7983 9.58334 36.0877 9.58334 30.6666 9.58334H15.3333C9.91216 9.58334 7.20159 9.58334 5.51745 11.2675C4.04472 12.7402 3.85984 14.9979 3.83665 19.1667ZM42.1666 23H3.83331V26.8333C3.83331 32.2544 3.83331 34.965 5.51745 36.6492C7.20159 38.3333 9.91216 38.3333 15.3333 38.3333H30.6666C36.0877 38.3333 38.7983 38.3333 40.4825 36.6492C42.1666 34.965 42.1666 32.2544 42.1666 26.8333V23ZM13.4166 28.75C12.3581 28.75 11.5 29.6081 11.5 30.6667C11.5 31.7253 12.3581 32.5833 13.4166 32.5833H13.4358C14.4943 32.5833 15.3525 31.7253 15.3525 30.6667C15.3525 29.6081 14.4943 28.75 13.4358 28.75H13.4166Z" fill="white"/>
</svg>