<svg width="46" height="46" viewBox="0 0 46 46" fill="none" xmlns="http://www.w3.org/2000/svg">
<path d="M36.4166 36.4167H9.58331" stroke="white" stroke-width="2" stroke-linecap="round"/>
<path d="M21.0834 26.8333V19.1667C21.0834 17.0496 19.3672 15.3333 17.25 15.3333C15.1329 15.3333 13.4167 17.0496 13.4167 19.1667V26.8333C13.4167 28.9505 15.1329 30.6667 17.25 30.6667C19.3672 30.6667 21.0834 28.9505 21.0834 26.8333Z" fill="white"/>
<path d="M32.5834 26.8333V11.5C32.5834 9.38291 30.8672 7.66667 28.75 7.66667C26.6329 7.66667 24.9167 9.38291 24.9167 11.5V26.8333C24.9167 28.9505 26.6329 30.6667 28.75 30.6667C30.8672 30.6667 32.5834 28.9505 32.5834 26.8333Z" fill="white"/>
</svg>
