<svg width="36" height="33" viewBox="0 0 36 33" fill="none" xmlns="http://www.w3.org/2000/svg">
<path fill-rule="evenodd" clip-rule="evenodd" d="M0.75 12.9333C0.75 8.6396 0.75 6.49274 1.58561 4.85274C2.32065 3.41016 3.4935 2.23732 4.93608 1.50228C6.57607 0.666667 8.72293 0.666667 13.0167 0.666667H22.9833C27.2771 0.666667 29.4239 0.666667 31.064 1.50228C32.5065 2.23732 33.6793 3.41016 34.4143 4.85274C35.25 6.49274 35.25 8.6396 35.25 12.9333V15.2333C35.25 19.5271 35.25 21.6739 34.4143 23.314C33.6793 24.7565 32.5065 25.9293 31.064 26.6643C29.4239 27.5 27.2771 27.5 22.9833 27.5H9.21057C8.70225 27.5 8.21473 27.702 7.85529 28.0614L4.02196 31.8947C2.81452 33.1022 0.75 32.247 0.75 30.5395V27.5V17.9167V12.9333ZM12.25 8.33333C11.1915 8.33333 10.3333 9.19146 10.3333 10.25C10.3333 11.3085 11.1915 12.1667 12.25 12.1667H23.75C24.8086 12.1667 25.6667 11.3085 25.6667 10.25C25.6667 9.19146 24.8086 8.33333 23.75 8.33333H12.25ZM12.25 16C11.1915 16 10.3333 16.8581 10.3333 17.9167C10.3333 18.9752 11.1915 19.8333 12.25 19.8333H18C19.0586 19.8333 19.9167 18.9752 19.9167 17.9167C19.9167 16.8581 19.0586 16 18 16H12.25Z" fill="white"/>
</svg>
