<svg width="46" height="46" viewBox="0 0 46 46" fill="none" xmlns="http://www.w3.org/2000/svg">
<path d="M17.2501 7.66663H9.58341C8.52487 7.66663 7.66675 8.52475 7.66675 9.5833V17.25C7.66675 18.3085 8.52487 19.1667 9.58341 19.1667H17.2501C18.3087 19.1667 19.1668 18.3085 19.1668 17.25V9.5833C19.1668 8.52475 18.3087 7.66663 17.2501 7.66663Z" fill="white" stroke="white" stroke-width="2" stroke-linejoin="round"/>
<path d="M17.2501 26.8333H9.58341C8.52487 26.8333 7.66675 27.6914 7.66675 28.75V36.4167C7.66675 37.4752 8.52487 38.3333 9.58341 38.3333H17.2501C18.3087 38.3333 19.1668 37.4752 19.1668 36.4167V28.75C19.1668 27.6914 18.3087 26.8333 17.2501 26.8333Z" fill="white" stroke="white" stroke-width="2" stroke-linejoin="round"/>
<path d="M36.4166 26.8333H28.75C27.6914 26.8333 26.8333 27.6914 26.8333 28.75V36.4167C26.8333 37.4752 27.6914 38.3333 28.75 38.3333H36.4166C37.4752 38.3333 38.3333 37.4752 38.3333 36.4167V28.75C38.3333 27.6914 37.4752 26.8333 36.4166 26.8333Z" fill="white" stroke="white" stroke-width="2" stroke-linejoin="round"/>
<path d="M36.4166 7.66663H28.75C27.6914 7.66663 26.8333 8.52475 26.8333 9.5833V17.25C26.8333 18.3085 27.6914 19.1667 28.75 19.1667H36.4166C37.4752 19.1667 38.3333 18.3085 38.3333 17.25V9.5833C38.3333 8.52475 37.4752 7.66663 36.4166 7.66663Z" fill="white" stroke="white" stroke-width="2" stroke-linejoin="round"/>
</svg>
