<svg width="36" height="28" viewBox="0 0 36 28" fill="none" xmlns="http://www.w3.org/2000/svg">
<path fill-rule="evenodd" clip-rule="evenodd" d="M2.43414 2.26747C0.75 3.95161 0.75 6.66218 0.75 12.0833V15.9167C0.75 21.3378 0.75 24.0483 2.43414 25.7325C4.11827 27.4167 6.82884 27.4167 12.25 27.4167H23.75C29.1711 27.4167 31.8816 27.4167 33.5658 25.7325C35.25 24.0483 35.25 21.3378 35.25 15.9167V12.0833C35.25 6.66218 35.25 3.95161 33.5658 2.26747C31.8816 0.583336 29.1711 0.583336 23.75 0.583336H12.25C6.82884 0.583336 4.11827 0.583336 2.43414 2.26747ZM7.56317 6.65524C6.68241 6.06807 5.49241 6.30606 4.90524 7.18683C4.31807 8.06759 4.55606 9.2576 5.43683 9.84477L15.8737 16.8026C17.1613 17.661 18.8387 17.661 20.1263 16.8026L30.5632 9.84477C31.4439 9.2576 31.6819 8.06759 31.0949 7.18683C30.5076 6.30606 29.3175 6.06807 28.4368 6.65524L18 13.6132L7.56317 6.65524Z" fill="white"/>
</svg>
