<svg width="40" height="36" viewBox="0 0 40 36" fill="none" xmlns="http://www.w3.org/2000/svg">
<path fill-rule="evenodd" clip-rule="evenodd" d="M2.51745 2.43414C0.833313 4.11827 0.833313 6.82884 0.833313 12.25V23.75C0.833313 29.1711 0.833313 31.8816 2.51745 33.5658C4.20159 35.25 6.91216 35.25 12.3333 35.25H31.5C33.2825 35.25 34.1737 35.25 34.9049 35.0541C36.8891 34.5224 38.4391 32.9724 38.9708 30.9883C39.1666 30.2571 39.1666 29.3658 39.1666 27.5833H27.6666C24.4909 27.5833 21.9166 25.0091 21.9166 21.8333C21.9166 18.6576 24.4909 16.0833 27.6666 16.0833H39.1666V12.25C39.1666 6.82884 39.1666 4.11827 37.4825 2.43414C35.7983 0.75 33.0877 0.75 27.6666 0.75H12.3333C6.91216 0.75 4.20159 0.75 2.51745 2.43414ZM10.4166 8.41667C9.35811 8.41667 8.49998 9.2748 8.49998 10.3333C8.49998 11.3919 9.35811 12.25 10.4166 12.25H16.1666C17.2252 12.25 18.0833 11.3919 18.0833 10.3333C18.0833 9.2748 17.2252 8.41667 16.1666 8.41667H10.4166Z" fill="white"/>
</svg>
